<svg width="1080" height="1080" viewBox="0 0 1080 1080" fill="none" xmlns="http://www.w3.org/2000/svg">
<g clip-path="url(#clip0_33_104)">
<circle cx="540" cy="540" r="540" fill="black"/>
<path d="M288.815 845.37L287 365.65H352.493H397.987L399.802 845.37H288.815ZM342.04 336.383C328.382 336.383 316.675 331.871 306.92 322.848C297.164 313.824 292.286 302.971 292.286 290.288C292.286 277.606 297.164 266.753 306.92 257.729C316.675 248.705 328.382 244.193 342.04 244.193C355.819 244.193 367.526 248.705 377.16 257.729C386.915 266.753 391.793 277.606 391.793 290.288C391.793 302.971 386.915 313.824 377.16 322.848C367.526 331.871 355.819 336.383 342.04 336.383Z" fill="#398596"/>
<path d="M288.815 845.37L287 365.65H352.493H397.987L399.802 845.37H288.815ZM342.04 336.383C328.382 336.383 316.675 331.871 306.92 322.848C297.164 313.824 292.286 302.971 292.286 290.288C292.286 277.606 297.164 266.753 306.92 257.729C316.675 248.705 328.382 244.193 342.04 244.193C355.819 244.193 367.526 248.705 377.16 257.729C386.915 266.753 391.793 277.606 391.793 290.288C391.793 302.971 386.915 313.824 377.16 322.848C367.526 331.871 355.819 336.383 342.04 336.383Z" fill="url(#paint0_linear_33_104)"/>
<path fill-rule="evenodd" clip-rule="evenodd" d="M425.675 332.702C431.439 320.563 434.664 306.985 434.664 292.655C434.664 270.618 427.039 250.363 414.283 234.382V231H654.27C682.805 231 707.499 237.829 728.351 251.487C749.082 265.022 765.117 283.924 776.458 308.191C787.677 332.458 793.287 360.627 793.287 392.698C793.287 425.014 787.677 460.565 776.458 484.832C765.117 509.099 749.082 528.001 728.351 541.536C707.499 554.95 682.805 561.657 654.27 561.657H414.283V452.695H645.49C657.075 452.695 667.44 450.134 676.586 445.012C685.61 439.891 692.682 432.818 697.804 423.794C702.926 414.648 705.487 404.283 705.487 392.698C705.487 380.992 702.926 370.626 697.804 361.602C692.682 352.579 685.61 345.506 676.586 340.384C667.44 335.262 657.075 332.702 645.49 332.702H425.675Z" fill="#398596"/>
<path fill-rule="evenodd" clip-rule="evenodd" d="M425.675 332.702C431.439 320.563 434.664 306.985 434.664 292.655C434.664 270.618 427.039 250.363 414.283 234.382V231H654.27C682.805 231 707.499 237.829 728.351 251.487C749.082 265.022 765.117 283.924 776.458 308.191C787.677 332.458 793.287 360.627 793.287 392.698C793.287 425.014 787.677 460.565 776.458 484.832C765.117 509.099 749.082 528.001 728.351 541.536C707.499 554.95 682.805 561.657 654.27 561.657H414.283V452.695H645.49C657.075 452.695 667.44 450.134 676.586 445.012C685.61 439.891 692.682 432.818 697.804 423.794C702.926 414.648 705.487 404.283 705.487 392.698C705.487 380.992 702.926 370.626 697.804 361.602C692.682 352.579 685.61 345.506 676.586 340.384C667.44 335.262 657.075 332.702 645.49 332.702H425.675Z" fill="url(#paint1_linear_33_104)"/>
<path fill-rule="evenodd" clip-rule="evenodd" d="M669.538 575.664H577.688V750.684V750.801V751.196H577.689C577.696 752.506 577.731 753.814 577.795 755.121L577.578 755C575.236 782.961 586.112 834.71 642.463 846.886C648.861 848.778 655.253 849.264 662.845 849.387C664.717 849.462 666.628 849.5 668.578 849.5H747.578L746.928 849.138H747.791V789.474H722.379C696.286 789.474 670.981 776.092 669.636 751.199L669.538 751.118V747.619V747.565V747.512V575.664Z" fill="#398596"/>
<path fill-rule="evenodd" clip-rule="evenodd" d="M669.538 575.664H577.688V750.684V750.801V751.196H577.689C577.696 752.506 577.731 753.814 577.795 755.121L577.578 755C575.236 782.961 586.112 834.71 642.463 846.886C648.861 848.778 655.253 849.264 662.845 849.387C664.717 849.462 666.628 849.5 668.578 849.5H747.578L746.928 849.138H747.791V789.474H722.379C696.286 789.474 670.981 776.092 669.636 751.199L669.538 751.118V747.619V747.565V747.512V575.664Z" fill="url(#paint2_linear_33_104)"/>
</g>
<defs>
<linearGradient id="paint0_linear_33_104" x1="312.752" y1="273.132" x2="578.018" y2="353.203" gradientUnits="userSpaceOnUse">
<stop offset="0.0499999" stop-color="#5EF86E" stop-opacity="0.931562"/>
<stop offset="0.39375" stop-color="#4EDA5C" stop-opacity="0.696629"/>
<stop offset="0.652474" stop-color="#5DDC6A" stop-opacity="0.399334"/>
<stop offset="1" stop-opacity="0"/>
</linearGradient>
<linearGradient id="paint1_linear_33_104" x1="451.145" y1="246.917" x2="656.458" y2="676.086" gradientUnits="userSpaceOnUse">
<stop offset="0.0499999" stop-color="#5EF86E" stop-opacity="0.931562"/>
<stop offset="0.39375" stop-color="#4EDA5C" stop-opacity="0.696629"/>
<stop offset="0.652474" stop-color="#5DDC6A" stop-opacity="0.399334"/>
<stop offset="1" stop-opacity="0"/>
</linearGradient>
<linearGradient id="paint2_linear_33_104" x1="507.786" y1="372.025" x2="869.644" y2="769.248" gradientUnits="userSpaceOnUse">
<stop offset="0.390769" stop-color="#5EF86E" stop-opacity="0.931562"/>
<stop offset="1" stop-opacity="0"/>
</linearGradient>
<clipPath id="clip0_33_104">
<rect width="1080" height="1080" fill="white"/>
</clipPath>
</defs>
</svg>
